<svg width="290" height="88" viewBox="0 0 290 88" fill="none" xmlns="http://www.w3.org/2000/svg">
<path d="M5.464 38.992L10 48.064C18.856 45.472 28 41.584 35.416 37.696V60.736C35.416 63.904 35.2 68.44 34.912 70.168H46.288C45.784 68.368 45.64 63.904 45.64 60.736V31.648C52.624 27.04 59.536 21.424 65.008 16.024L57.232 8.608C52.552 14.296 44.344 21.496 36.928 26.104C28.936 31 18.352 35.68 5.464 38.992ZM239.608 60.088C239.608 62.968 239.32 67.288 238.888 70.168H250.12C249.832 67.216 249.472 62.176 249.472 60.088V39.712C257.248 42.376 268.048 46.552 275.464 50.44L279.568 40.504C272.944 37.264 259.12 32.152 249.472 29.344V18.688C249.472 15.736 249.832 12.568 250.12 10.048H238.888C239.392 12.568 239.608 16.168 239.608 18.688V60.088Z" fill="#B1010E"/>
<path d="M124.048 17.104L117.784 19.696C120.448 23.368 122.248 26.896 124.336 31.432L130.816 28.624C129.232 25.312 126.064 20.056 124.048 17.104ZM133.696 13.144L127.504 15.952C130.168 19.552 132.112 22.864 134.416 27.4L140.68 24.376C139.024 21.136 135.784 16.024 133.696 13.144ZM75.52 46.48L84.16 55.408C85.456 53.536 87.184 51.016 88.84 48.712C91.72 44.824 96.832 37.696 99.64 34.096C101.728 31.504 103.24 31.36 105.544 33.664C108.136 36.328 114.544 43.312 118.72 48.28C122.968 53.248 129.088 60.664 133.912 66.64L141.832 58.144C136.288 52.24 128.944 44.248 124.12 39.136C119.8 34.456 114.256 28.696 109.432 24.16C103.816 18.904 99.568 19.696 95.32 24.736C90.352 30.64 84.736 37.696 81.496 41.008C79.264 43.168 77.68 44.752 75.52 46.48ZM162.352 12.28L155.584 19.48C160.84 23.152 169.84 31 173.584 35.032L180.928 27.544C176.752 23.152 167.392 15.664 162.352 12.28ZM153.352 60.232L159.4 69.736C169.552 68.008 178.84 63.976 186.112 59.584C197.704 52.6 207.28 42.664 212.752 32.944L207.136 22.792C202.6 32.512 193.24 43.528 180.928 50.8C173.944 54.976 164.584 58.648 153.352 60.232Z" fill="white"/>
<path d="M122.835 87H120.198V74.2031H122.835V87ZM133.689 82.333C133.689 83.8564 133.364 85.0459 132.714 85.9014C132.063 86.751 131.155 87.1758 129.989 87.1758C128.958 87.1758 128.135 86.7803 127.52 85.9893L127.405 87H125.12V73.5H127.66V78.3428C128.246 77.6572 129.017 77.3145 129.972 77.3145C131.132 77.3145 132.04 77.7422 132.696 78.5977C133.358 79.4473 133.689 80.6455 133.689 82.1924V82.333ZM131.149 82.1484C131.149 81.1875 130.997 80.4873 130.692 80.0479C130.388 79.6025 129.934 79.3799 129.33 79.3799C128.521 79.3799 127.965 79.7109 127.66 80.373V84.126C127.971 84.7939 128.533 85.1279 129.348 85.1279C130.168 85.1279 130.707 84.7236 130.965 83.915C131.088 83.5283 131.149 82.9395 131.149 82.1484ZM139.64 87.1758C138.245 87.1758 137.108 86.748 136.229 85.8926C135.356 85.0371 134.92 83.8975 134.92 82.4736V82.2275C134.92 81.2725 135.104 80.4199 135.474 79.6699C135.843 78.9141 136.364 78.334 137.038 77.9297C137.718 77.5195 138.491 77.3145 139.358 77.3145C140.659 77.3145 141.682 77.7246 142.426 78.5449C143.176 79.3652 143.551 80.5283 143.551 82.0342V83.0713H137.495C137.577 83.6924 137.823 84.1904 138.233 84.5654C138.649 84.9404 139.174 85.1279 139.807 85.1279C140.785 85.1279 141.55 84.7734 142.101 84.0645L143.349 85.4619C142.968 86.001 142.452 86.4229 141.802 86.7275C141.151 87.0264 140.431 87.1758 139.64 87.1758ZM139.35 79.3711C138.846 79.3711 138.436 79.541 138.119 79.8809C137.809 80.2207 137.609 80.707 137.521 81.3398H141.055V81.1377C141.043 80.5752 140.891 80.1416 140.598 79.8369C140.305 79.5264 139.889 79.3711 139.35 79.3711ZM147.339 77.4902L147.418 78.5889C148.098 77.7393 149.009 77.3145 150.151 77.3145C151.159 77.3145 151.909 77.6104 152.401 78.2021C152.894 78.7939 153.146 79.6787 153.157 80.8564V87H150.617V80.918C150.617 80.3789 150.5 79.9893 150.266 79.749C150.031 79.5029 149.642 79.3799 149.097 79.3799C148.382 79.3799 147.846 79.6846 147.488 80.2939V87H144.948V77.4902H147.339ZM158.132 75.1523V77.4902H159.758V79.3535H158.132V84.0996C158.132 84.4512 158.199 84.7031 158.334 84.8555C158.469 85.0078 158.727 85.084 159.107 85.084C159.389 85.084 159.638 85.0635 159.854 85.0225V86.9473C159.356 87.0996 158.844 87.1758 158.316 87.1758C156.535 87.1758 155.627 86.2764 155.592 84.4775V79.3535H154.203V77.4902H155.592V75.1523H158.132ZM160.514 82.1572C160.514 81.2139 160.695 80.373 161.059 79.6348C161.422 78.8965 161.943 78.3252 162.623 77.9209C163.309 77.5166 164.103 77.3145 165.005 77.3145C166.288 77.3145 167.334 77.707 168.143 78.4922C168.957 79.2773 169.411 80.3438 169.505 81.6914L169.522 82.3418C169.522 83.8008 169.115 84.9727 168.301 85.8574C167.486 86.7363 166.394 87.1758 165.022 87.1758C163.651 87.1758 162.556 86.7363 161.735 85.8574C160.921 84.9785 160.514 83.7832 160.514 82.2715V82.1572ZM163.054 82.3418C163.054 83.2441 163.224 83.9355 163.563 84.416C163.903 84.8906 164.39 85.1279 165.022 85.1279C165.638 85.1279 166.118 84.8936 166.464 84.4248C166.81 83.9502 166.982 83.1943 166.982 82.1572C166.982 81.2725 166.81 80.5869 166.464 80.1006C166.118 79.6143 165.632 79.3711 165.005 79.3711C164.384 79.3711 163.903 79.6143 163.563 80.1006C163.224 80.5811 163.054 81.3281 163.054 82.3418Z" fill="white"/>
<path d="M231.654 81H185" stroke="white" stroke-width="5" stroke-linecap="round" stroke-linejoin="round"/>
<path d="M105.654 81H59" stroke="white" stroke-width="5" stroke-linecap="round" stroke-linejoin="round"/>
</svg>
